<?xml version="1.0" encoding="utf-8"?>
<!-- Generator: Adobe Illustrator 16.0.0, SVG Export Plug-In . SVG Version: 6.00 Build 0)  -->
<!DOCTYPE svg PUBLIC "-//W3C//DTD SVG 1.1//EN" "http://www.w3.org/Graphics/SVG/1.1/DTD/svg11.dtd">
<svg version="1.1" id="Layer_1" xmlns="http://www.w3.org/2000/svg" xmlns:xlink="http://www.w3.org/1999/xlink" x="0px" y="0px"
	 width="38.9px" height="39px" viewBox="0 0 38.9 39" enable-background="new 0 0 38.9 39" xml:space="preserve">
<path fill="#95B946" d="M38.9,32.1c0,3.8-3.1,7-6.9,7c-1.8,0-3.6-0.7-4.9-2c-1.3-1.3-2-3.1-2-4.9V13.9l-18.1,0c-1.9,0-3.6-0.7-4.9-2
	C0.7,10.6,0,8.8,0,7C0,5.1,0.7,3.4,2,2c1.3-1.3,3.1-2,4.9-2l24.9,0c1.8,0,3.6,0.7,4.9,2l0.1,0.1c1.3,1.3,2,3.1,2,4.9L38.9,32.1z"/>
</svg>
