<?xml version="1.0" encoding="utf-8"?>
<!-- Generator: Adobe Illustrator 16.0.0, SVG Export Plug-In . SVG Version: 6.00 Build 0)  -->
<!DOCTYPE svg PUBLIC "-//W3C//DTD SVG 1.1//EN" "http://www.w3.org/Graphics/SVG/1.1/DTD/svg11.dtd">
<svg version="1.1" id="Layer_1" xmlns="http://www.w3.org/2000/svg" xmlns:xlink="http://www.w3.org/1999/xlink" x="0px" y="0px"
	 width="38.9px" height="39px" viewBox="0 0 38.9 39" enable-background="new 0 0 38.9 39" xml:space="preserve">
<path fill="#ECAB20" d="M38.9,32.1c0,1.8-0.7,3.6-2,4.9c-1.3,1.3-3.1,2-4.9,2L7,39c-1.8,0-3.6-0.7-4.9-2L2,36.9
	c-1.3-1.3-2-3.1-2-4.9L0,7c0-3.8,3.1-7,6.9-7c1.8,0,3.6,0.7,4.9,2c1.3,1.3,2,3.1,2,4.9v18.2l18.1,0c1.9,0,3.6,0.7,4.9,2
	C38.1,28.5,38.9,30.2,38.9,32.1z"/>
</svg>
