<?xml version="1.0" encoding="utf-8"?>
<!-- Generator: Adobe Illustrator 16.0.0, SVG Export Plug-In . SVG Version: 6.00 Build 0)  -->
<!DOCTYPE svg PUBLIC "-//W3C//DTD SVG 1.1//EN" "http://www.w3.org/Graphics/SVG/1.1/DTD/svg11.dtd">
<svg version="1.1" id="Layer_1" xmlns="http://www.w3.org/2000/svg" xmlns:xlink="http://www.w3.org/1999/xlink" x="0px" y="0px"
	 width="38.9px" height="39px" viewBox="0 0 38.9 39" enable-background="new 0 0 38.9 39" xml:space="preserve">
<path fill="#DB3C40" d="M38.9,7l0,25c0,1.9-0.7,3.6-2,4.9L36.7,37c-1.3,1.3-3.1,2-4.9,2L6.9,39c-3.8,0-6.9-3.1-6.9-7
	c0-1.9,0.7-3.6,2-4.9c1.3-1.3,3-2,4.9-2H25L25,7c0-1.9,0.7-3.6,2-4.9c1.3-1.3,3.1-2,4.9-2c1.8,0,3.6,0.7,4.9,2
	C38.1,3.4,38.9,5.1,38.9,7z"/>
</svg>
